<?xml version="1.0" encoding="utf-8"?>
<!-- Generator: Adobe Illustrator 16.0.4, SVG Export Plug-In . SVG Version: 6.00 Build 0)  -->
<!DOCTYPE svg PUBLIC "-//W3C//DTD SVG 1.1//EN" "http://www.w3.org/Graphics/SVG/1.1/DTD/svg11.dtd">
<svg version="1.1" id="Capa_1" xmlns="http://www.w3.org/2000/svg" xmlns:xlink="http://www.w3.org/1999/xlink" x="0px" y="0px"
	 width="16px" height="16px" viewBox="26.015 26.015 16 16" enable-background="new 26.015 26.015 16 16" xml:space="preserve">
<path fill="#455A64" d="M34.015,26.02c-2.391,0.003-4.328,1.94-4.331,4.331v2.665c0,0.184,0.15,0.333,0.334,0.333h1.332
	c0.184,0,0.333-0.149,0.333-0.333v-2.665c0-1.288,1.044-2.332,2.332-2.332s2.331,1.044,2.331,2.332v2.665
	c0,0.184,0.15,0.333,0.334,0.333h1.333c0.184,0,0.333-0.149,0.333-0.333v-2.665C38.343,27.961,36.406,26.024,34.015,26.02z"/>
<path fill="#FFC107" d="M30.018,32.683h7.995c0.92,0,1.665,0.746,1.665,1.665v5.997c0,0.92-0.745,1.665-1.665,1.665h-7.995
	c-0.92,0-1.666-0.745-1.666-1.665v-5.997C28.352,33.428,29.098,32.683,30.018,32.683z"/>
<path fill="#455A64" d="M35.68,36.346c0.004-0.918-0.738-1.667-1.658-1.672c-0.92-0.004-1.668,0.738-1.673,1.659
	c-0.002,0.636,0.357,1.217,0.927,1.5l-0.257,1.798c-0.026,0.183,0.102,0.353,0.283,0.377c0.015,0.003,0.031,0.003,0.047,0.003h1.331
	c0.186,0.002,0.336-0.146,0.338-0.329c0-0.017-0.002-0.034-0.004-0.052l-0.257-1.799C35.32,37.55,35.676,36.976,35.68,36.346z"/>
</svg>
