<?xml version="1.0" encoding="utf-8"?>
<!-- Generator: Adobe Illustrator 16.0.4, SVG Export Plug-In . SVG Version: 6.00 Build 0)  -->
<!DOCTYPE svg PUBLIC "-//W3C//DTD SVG 1.1//EN" "http://www.w3.org/Graphics/SVG/1.1/DTD/svg11.dtd">
<svg version="1.1" id="Layer_1" xmlns="http://www.w3.org/2000/svg" xmlns:xlink="http://www.w3.org/1999/xlink" x="0px" y="0px"
	 width="16px" height="16px" viewBox="0 0 16 16" enable-background="new 0 0 16 16" xml:space="preserve">
<g>
	<g>
		<g>
			<g id="XMLID_29_">
				<g>
					<linearGradient id="SVGID_1_" gradientUnits="userSpaceOnUse" x1="5.1047" y1="8.9197" x2="10.8375" y2="14.6525">
						<stop  offset="0" style="stop-color:#196B99"/>
						<stop  offset="1" style="stop-color:#0D5C7F"/>
					</linearGradient>
					<path fill="url(#SVGID_1_)" d="M12.672,12.815c0,0.001,0,0.002,0,0.003c-1.243,1.165-2.892,1.875-4.702,1.875
						c-1.809,0-3.459-0.71-4.702-1.875c0-0.001,0-0.002,0-0.003c0-1.938,1.097-3.61,2.683-4.391C6.548,9.039,7.246,9.37,7.97,9.37
						c0.725,0,1.423-0.331,2.02-0.946C11.576,9.205,12.672,10.877,12.672,12.815z"/>
					<path fill="#FCD09F" d="M7.97,2.305c1.437,0,2.601,1.204,2.601,2.688c0,1.485-1.164,3.516-2.601,3.516
						c-1.436,0-2.601-2.03-2.601-3.516C5.37,3.509,6.534,2.305,7.97,2.305z"/>
				</g>
			</g>
		</g>
		<g>
			<g>
				<g id="XMLID_27_">
					<g>
						<linearGradient id="SVGID_2_" gradientUnits="userSpaceOnUse" x1="1.6516" y1="7.7078" x2="4.5001" y2="10.5562">
							<stop  offset="0" style="stop-color:#74B739"/>
							<stop  offset="1" style="stop-color:#56991C"/>
						</linearGradient>
						<path fill="url(#SVGID_2_)" d="M5.779,7.563c0.08,0.118,0.163,0.229,0.249,0.331l-0.26,0.128
							C4.903,8.447,4.172,9.111,3.653,9.944c-0.422,0.678-0.688,1.441-0.779,2.237c-0.938-0.263-1.787-0.754-2.487-1.41v-0.004
							c0-1.688,0.956-3.146,2.338-3.826c0.52,0.536,1.128,0.824,1.759,0.824c0.413,0,0.817-0.124,1.192-0.359
							C5.709,7.459,5.744,7.511,5.779,7.563z"/>
						<path fill="#EFC59C" d="M4.939,4.993c0,0.559,0.14,1.172,0.39,1.75C5.068,6.913,4.782,7.015,4.484,7.015
							c-1.252,0-2.267-1.77-2.267-3.064c0-1.293,1.015-2.342,2.267-2.342c0.694,0,1.315,0.322,1.73,0.831
							C5.443,3.009,4.939,3.941,4.939,4.993z"/>
					</g>
				</g>
			</g>
			<g>
				<g id="XMLID_22_">
					<g>
						<linearGradient id="SVGID_3_" gradientUnits="userSpaceOnUse" x1="10.6956" y1="6.9675" x2="15.0231" y2="11.2951">
							<stop  offset="0" style="stop-color:#74B739"/>
							<stop  offset="1" style="stop-color:#56991C"/>
						</linearGradient>
						<path fill="url(#SVGID_3_)" d="M10.155,7.563c-0.08,0.118-0.163,0.229-0.249,0.331l0.261,0.128
							c0.864,0.424,1.595,1.089,2.113,1.921c0.422,0.678,0.688,1.441,0.779,2.237c0.938-0.263,1.787-0.754,2.487-1.41v-0.004
							c0-1.688-0.956-3.146-2.338-3.826c-0.52,0.536-1.128,0.824-1.759,0.824c-0.414,0-0.816-0.124-1.193-0.359
							C10.224,7.459,10.19,7.511,10.155,7.563z"/>
						<path fill="#EFC59C" d="M10.994,4.993c0,0.559-0.14,1.172-0.389,1.75c0.26,0.171,0.546,0.272,0.845,0.272
							c1.251,0,2.267-1.77,2.267-3.064c0-1.293-1.015-2.342-2.267-2.342c-0.694,0-1.315,0.322-1.73,0.831
							C10.49,3.009,10.994,3.941,10.994,4.993z"/>
					</g>
				</g>
			</g>
		</g>
	</g>
</g>
</svg>
