<?xml version="1.0" encoding="utf-8"?>
<!-- Generator: Adobe Illustrator 16.0.4, SVG Export Plug-In . SVG Version: 6.00 Build 0)  -->
<!DOCTYPE svg PUBLIC "-//W3C//DTD SVG 1.1//EN" "http://www.w3.org/Graphics/SVG/1.1/DTD/svg11.dtd">
<svg version="1.1" id="Ebene_1" xmlns="http://www.w3.org/2000/svg" xmlns:xlink="http://www.w3.org/1999/xlink" x="0px" y="0px"
	 width="88.059px" height="34.225px" viewBox="0 0 88.059 34.225" enable-background="new 0 0 88.059 34.225" xml:space="preserve">
<g>
	<path fill="#FFFFFF" d="M1.76,9.04H0.34L0.56,7h1.2V4.88c0-0.893,0.263-1.597,0.79-2.11S3.827,2,4.8,2
		c0.547,0,1.087,0.06,1.62,0.18l-0.22,2c-0.227-0.067-0.487-0.1-0.78-0.1c-0.787,0-1.18,0.414-1.18,1.24V7h2.2v2.04h-2.2V17H1.76
		V9.04z"/>
	<path fill="#FFFFFF" d="M9.71,16.49c-0.82-0.473-1.433-1.107-1.84-1.9c-0.407-0.793-0.61-1.676-0.61-2.65
		c0-0.933,0.193-1.787,0.58-2.56c0.386-0.773,0.946-1.39,1.68-1.85c0.733-0.46,1.607-0.69,2.62-0.69c0.933,0,1.723,0.193,2.37,0.58
		c0.646,0.387,1.133,0.907,1.46,1.56s0.49,1.387,0.49,2.2c0,0.4-0.053,0.853-0.16,1.36H9.84c0.133,0.88,0.48,1.537,1.04,1.97
		c0.56,0.434,1.233,0.65,2.02,0.65c1.08,0,2.08-0.273,3-0.82l0.12,2.1c-0.427,0.227-0.923,0.41-1.49,0.55
		c-0.567,0.14-1.184,0.21-1.85,0.21C11.52,17.2,10.53,16.963,9.71,16.49z M13.94,10.86c0-0.52-0.147-0.98-0.44-1.38
		s-0.747-0.6-1.36-0.6s-1.107,0.18-1.48,0.54c-0.374,0.36-0.627,0.84-0.76,1.44H13.94z"/>
	<path fill="#FFFFFF" d="M18.16,7h2.32l0.06,1.06c0.293-0.333,0.67-0.626,1.13-0.88s0.943-0.38,1.45-0.38
		c0.16,0,0.307,0.014,0.44,0.04l-0.18,2.44c-0.253-0.066-0.54-0.1-0.86-0.1c-0.414,0-0.793,0.097-1.14,0.29s-0.593,0.43-0.74,0.71
		V17h-2.48V7z"/>
	<path fill="#FFFFFF" d="M24.76,3h2.48v2.48h-2.48V3z M24.76,7h2.48v10h-2.48V7z"/>
	<path fill="#FFFFFF" d="M31.409,16.49c-0.82-0.473-1.433-1.107-1.84-1.9c-0.407-0.793-0.61-1.676-0.61-2.65
		c0-0.933,0.193-1.787,0.58-2.56c0.386-0.773,0.946-1.39,1.68-1.85c0.733-0.46,1.607-0.69,2.62-0.69c0.933,0,1.723,0.193,2.37,0.58
		c0.646,0.387,1.133,0.907,1.46,1.56s0.49,1.387,0.49,2.2c0,0.4-0.053,0.853-0.16,1.36h-6.46c0.133,0.88,0.48,1.537,1.04,1.97
		c0.56,0.434,1.233,0.65,2.02,0.65c1.08,0,2.08-0.273,3-0.82l0.12,2.1c-0.427,0.227-0.923,0.41-1.49,0.55
		c-0.567,0.14-1.184,0.21-1.85,0.21C33.219,17.2,32.229,16.963,31.409,16.49z M35.64,10.86c0-0.52-0.147-0.98-0.44-1.38
		s-0.747-0.6-1.36-0.6s-1.107,0.18-1.48,0.54c-0.374,0.36-0.627,0.84-0.76,1.44H35.64z"/>
	<path fill="#FFFFFF" d="M47.72,8.08c0.64,0.827,0.96,1.94,0.96,3.34V17H46.2v-5.38c0-0.933-0.157-1.623-0.47-2.07
		c-0.313-0.446-0.817-0.67-1.51-0.67c-0.76,0-1.387,0.287-1.88,0.86V17h-2.48V7h2.32l0.04,0.7c0.84-0.573,1.733-0.86,2.68-0.86
		C46.14,6.84,47.08,7.253,47.72,8.08z"/>
	<path fill="#FFFFFF" d="M58.559,7.54c0.68,0.467,1.193,1.093,1.54,1.88c0.347,0.787,0.52,1.653,0.52,2.6s-0.173,1.813-0.52,2.6
		s-0.86,1.413-1.54,1.88c-0.68,0.467-1.493,0.7-2.44,0.7c-0.6,0-1.11-0.063-1.53-0.19c-0.42-0.126-0.824-0.33-1.21-0.61v5.44h-2.48
		V7h2l0.26,0.92c0.427-0.36,0.873-0.63,1.34-0.81c0.467-0.18,1.007-0.27,1.62-0.27C57.066,6.84,57.879,7.073,58.559,7.54z
		 M57.459,14.3c0.413-0.573,0.62-1.333,0.62-2.28s-0.207-1.707-0.62-2.28c-0.414-0.573-0.987-0.86-1.72-0.86
		c-0.827,0-1.447,0.28-1.86,0.84c-0.414,0.56-0.62,1.327-0.62,2.3c0,0.974,0.207,1.74,0.62,2.3c0.413,0.56,1.033,0.84,1.86,0.84
		C56.472,15.16,57.046,14.874,57.459,14.3z"/>
	<path fill="#FFFFFF" d="M62.429,16.39c-0.553-0.54-0.83-1.27-0.83-2.19c0-0.867,0.313-1.563,0.94-2.09
		c0.626-0.526,1.367-0.9,2.22-1.12c0.853-0.22,1.673-0.343,2.46-0.37c-0.027-0.587-0.177-1.007-0.45-1.26
		c-0.273-0.253-0.723-0.38-1.35-0.38c-0.44,0-0.87,0.06-1.29,0.18c-0.42,0.12-0.904,0.313-1.45,0.58l-0.22-2.02
		c1.213-0.587,2.427-0.88,3.64-0.88c1.173,0,2.07,0.32,2.69,0.96c0.62,0.64,0.93,1.66,0.93,3.06v2.7c0,0.507,0.023,0.87,0.07,1.09
		c0.047,0.22,0.126,0.36,0.24,0.42c0.113,0.06,0.303,0.09,0.57,0.09h0.32l-0.22,2.04h-0.9c-0.547,0-1.007-0.104-1.38-0.31
		c-0.374-0.207-0.66-0.49-0.86-0.85c-0.32,0.36-0.757,0.644-1.31,0.85s-1.137,0.31-1.75,0.31C63.672,17.2,62.982,16.93,62.429,16.39
		z M66.399,15.11c0.32-0.126,0.6-0.303,0.84-0.53V12.3c-0.8,0.04-1.507,0.214-2.12,0.52c-0.613,0.307-0.92,0.733-0.92,1.28
		c0,0.414,0.106,0.717,0.32,0.91c0.213,0.194,0.553,0.29,1.02,0.29C65.792,15.3,66.079,15.237,66.399,15.11z"/>
	<path fill="#FFFFFF" d="M73.389,17.02c-0.527-0.12-1.07-0.307-1.63-0.56l0.22-2.12c0.56,0.333,1.083,0.583,1.57,0.75
		c0.486,0.167,0.99,0.25,1.51,0.25c1.013,0,1.52-0.333,1.52-1c0-0.36-0.133-0.636-0.4-0.83c-0.267-0.193-0.747-0.423-1.44-0.69
		c-0.987-0.36-1.713-0.77-2.18-1.23s-0.7-1.083-0.7-1.87c0-0.867,0.333-1.57,1-2.11c0.667-0.54,1.566-0.81,2.7-0.81
		s2.167,0.26,3.1,0.78l-0.22,2.12c-0.507-0.347-0.983-0.613-1.43-0.8c-0.447-0.187-0.917-0.28-1.41-0.28
		c-0.427,0-0.757,0.087-0.99,0.26c-0.234,0.173-0.35,0.42-0.35,0.74c0,0.253,0.07,0.46,0.21,0.62c0.14,0.16,0.336,0.303,0.59,0.43
		c0.253,0.127,0.673,0.304,1.26,0.53c0.973,0.373,1.673,0.783,2.1,1.23s0.64,1.043,0.64,1.79c0,0.947-0.34,1.68-1.02,2.2
		c-0.68,0.52-1.647,0.78-2.9,0.78C74.499,17.2,73.915,17.14,73.389,17.02z"/>
	<path fill="#FFFFFF" d="M81.849,17.02c-0.527-0.12-1.07-0.307-1.63-0.56l0.22-2.12c0.56,0.333,1.083,0.583,1.57,0.75
		c0.486,0.167,0.99,0.25,1.51,0.25c1.013,0,1.52-0.333,1.52-1c0-0.36-0.133-0.636-0.4-0.83c-0.267-0.193-0.747-0.423-1.44-0.69
		c-0.987-0.36-1.713-0.77-2.18-1.23s-0.7-1.083-0.7-1.87c0-0.867,0.333-1.57,1-2.11c0.667-0.54,1.566-0.81,2.7-0.81
		s2.167,0.26,3.1,0.78l-0.22,2.12c-0.507-0.347-0.983-0.613-1.43-0.8c-0.447-0.187-0.917-0.28-1.41-0.28
		c-0.427,0-0.757,0.087-0.99,0.26c-0.234,0.173-0.35,0.42-0.35,0.74c0,0.253,0.07,0.46,0.21,0.62c0.14,0.16,0.336,0.303,0.59,0.43
		c0.253,0.127,0.673,0.304,1.26,0.53c0.973,0.373,1.673,0.783,2.1,1.23s0.64,1.043,0.64,1.79c0,0.947-0.34,1.68-1.02,2.2
		c-0.68,0.52-1.647,0.78-2.9,0.78C82.958,17.2,82.375,17.14,81.849,17.02z"/>
</g>
<g>
	<path fill="#E08B2D" d="M30.7,31.305h2.6v2.72h-2.6V31.305z"/>
	<path fill="#185A85" d="M37.18,33.525c-0.773-0.467-1.367-1.093-1.78-1.88c-0.414-0.787-0.62-1.653-0.62-2.601
		c0-0.946,0.207-1.819,0.62-2.619c0.413-0.801,1.006-1.434,1.78-1.9c0.773-0.467,1.687-0.7,2.74-0.7c1.053,0,1.966,0.233,2.74,0.7
		c0.773,0.467,1.367,1.1,1.78,1.9c0.413,0.8,0.62,1.673,0.62,2.619c0,0.947-0.207,1.813-0.62,2.601
		c-0.414,0.787-1.007,1.413-1.78,1.88c-0.773,0.467-1.687,0.7-2.74,0.7C38.867,34.225,37.953,33.992,37.18,33.525z M41.83,31.325
		c0.46-0.573,0.69-1.333,0.69-2.28c0-0.96-0.23-1.729-0.69-2.31s-1.097-0.87-1.91-0.87c-0.813,0-1.45,0.29-1.91,0.87
		s-0.69,1.35-0.69,2.31c0,0.947,0.23,1.707,0.69,2.28s1.097,0.86,1.91,0.86C40.733,32.185,41.37,31.898,41.83,31.325z"/>
	<path fill="#185A85" d="M54.64,25.105c0.64,0.827,0.96,1.939,0.96,3.34v5.58h-2.48v-5.38c0-0.934-0.157-1.623-0.47-2.07
		c-0.313-0.446-0.817-0.67-1.51-0.67c-0.76,0-1.387,0.287-1.88,0.86v7.26h-2.48v-10h2.32l0.04,0.7c0.84-0.573,1.733-0.86,2.68-0.86
		C53.06,23.865,54,24.279,54.64,25.105z"/>
	<path fill="#185A85" d="M58.459,33.495c-0.427-0.486-0.64-1.116-0.64-1.89v-12.58h2.48v11.56c0,0.534,0.03,0.91,0.09,1.131
		c0.06,0.22,0.167,0.353,0.32,0.399s0.417,0.07,0.79,0.07l-0.22,2.04h-0.9C59.526,34.225,58.886,33.982,58.459,33.495z"/>
	<path fill="#185A85" d="M63.08,20.025h2.48v2.48h-2.48V20.025z M63.08,24.025h2.48v10h-2.48V24.025z"/>
	<path fill="#185A85" d="M75.739,25.105c0.64,0.827,0.96,1.939,0.96,3.34v5.58h-2.48v-5.38c0-0.934-0.157-1.623-0.47-2.07
		c-0.313-0.446-0.817-0.67-1.51-0.67c-0.76,0-1.387,0.287-1.88,0.86v7.26h-2.48v-10h2.32l0.04,0.7c0.84-0.573,1.733-0.86,2.68-0.86
		C74.159,23.865,75.099,24.279,75.739,25.105z"/>
	<path fill="#185A85" d="M80.769,33.515c-0.82-0.474-1.433-1.106-1.84-1.9c-0.407-0.793-0.61-1.677-0.61-2.649
		c0-0.934,0.193-1.787,0.58-2.561c0.386-0.773,0.946-1.39,1.68-1.85s1.607-0.69,2.62-0.69c0.933,0,1.723,0.193,2.37,0.58
		c0.646,0.387,1.133,0.907,1.46,1.561s0.49,1.387,0.49,2.199c0,0.4-0.053,0.854-0.16,1.36h-6.46c0.133,0.88,0.48,1.537,1.04,1.97
		c0.56,0.434,1.233,0.65,2.02,0.65c1.08,0,2.08-0.273,3-0.82l0.12,2.101c-0.427,0.227-0.923,0.409-1.49,0.55
		c-0.567,0.14-1.184,0.21-1.85,0.21C82.579,34.225,81.589,33.989,80.769,33.515z M84.999,27.885c0-0.521-0.147-0.98-0.44-1.38
		c-0.293-0.4-0.747-0.601-1.36-0.601s-1.107,0.18-1.48,0.54c-0.374,0.36-0.627,0.84-0.76,1.44H84.999z"/>
</g>
</svg>
