<?xml version="1.0" encoding="utf-8"?>
<!-- Generator: Adobe Illustrator 16.0.4, SVG Export Plug-In . SVG Version: 6.00 Build 0)  -->
<!DOCTYPE svg PUBLIC "-//W3C//DTD SVG 1.1//EN" "http://www.w3.org/Graphics/SVG/1.1/DTD/svg11.dtd">
<svg version="1.1" id="Capa_1" xmlns="http://www.w3.org/2000/svg" xmlns:xlink="http://www.w3.org/1999/xlink" x="0px" y="0px"
	 width="16px" height="16px" viewBox="289.64 412.945 16 16" enable-background="new 289.64 412.945 16 16" xml:space="preserve">
<circle fill="#429B54" cx="297.639" cy="420.944" r="7.999"/>
<g>
	<polygon fill="#FFFFFF" points="301.777,420.944 295.708,425.082 295.708,421.02 295.708,416.807 	"/>
	<path fill="#FFFFFF" d="M295.708,425.357c-0.045,0-0.088-0.011-0.129-0.032c-0.09-0.048-0.147-0.141-0.147-0.243v-8.275
		c0-0.103,0.057-0.195,0.147-0.244c0.091-0.048,0.2-0.041,0.285,0.017l6.068,4.137c0.075,0.052,0.12,0.136,0.12,0.228
		s-0.045,0.176-0.12,0.228l-6.068,4.137C295.817,425.341,295.762,425.357,295.708,425.357z M295.984,417.329v7.23l5.304-3.615
		L295.984,417.329z"/>
</g>
</svg>
