<?xml version="1.0" encoding="utf-8"?>
<!-- Generator: Adobe Illustrator 16.0.4, SVG Export Plug-In . SVG Version: 6.00 Build 0)  -->
<!DOCTYPE svg PUBLIC "-//W3C//DTD SVG 1.1//EN" "http://www.w3.org/Graphics/SVG/1.1/DTD/svg11.dtd">
<svg version="1.1" id="Ebene_1" xmlns="http://www.w3.org/2000/svg" xmlns:xlink="http://www.w3.org/1999/xlink" x="0px" y="0px"
	 width="16px" height="16px" viewBox="0 0 16 16" enable-background="new 0 0 16 16" xml:space="preserve">
<linearGradient id="SVGID_1_" gradientUnits="userSpaceOnUse" x1="42.8545" y1="42.8535" x2="209.6965" y2="209.6948">
	<stop  offset="0" style="stop-color:#196B99"/>
	<stop  offset="1" style="stop-color:#0D5C7F"/>
</linearGradient>
<path fill="url(#SVGID_1_)" d="M11.104-0.016H2.896c-1.608,0-2.912,1.304-2.912,2.912v8.208c0,1.608,1.304,2.911,2.912,2.911h8.208
	c1.608,0,2.911-1.303,2.911-2.911V2.896C14.016,1.288,12.713-0.016,11.104-0.016z M9.102,11.401h-4.23H1.452
	c-0.16-0.198-0.294-0.414-0.391-0.655C1.146,9.476,2.146,8.46,3.413,8.362C2.898,7.9,2.574,7.229,2.574,6.483
	c0-1.398,1.134-2.532,2.532-2.532s2.532,1.134,2.532,2.532c0,0.748-0.326,1.417-0.84,1.88C7.394,8.419,7.957,8.68,8.381,9.109
	c0.484,0.485,0.751,1.142,0.747,1.824L9.102,11.401z M12.959,10.681c-0.098,0.267-0.237,0.507-0.412,0.721H9.919l0.022-0.425
	l0.002-0.015v-0.019C9.95,10.049,9.591,9.17,8.961,8.537c-0.246-0.25-0.527-0.456-0.834-0.615C8.34,7.475,8.453,6.985,8.453,6.483
	c0-1.375-0.833-2.56-2.022-3.074C6.526,2.097,7.62,1.062,8.955,1.062c1.398,0,2.533,1.133,2.533,2.532
	c0,0.747-0.324,1.417-0.841,1.88c0.598,0.056,1.159,0.317,1.585,0.747c0.482,0.485,0.75,1.141,0.746,1.826L12.959,10.681z"/>
<linearGradient id="SVGID_2_" gradientUnits="userSpaceOnUse" x1="8725.6367" y1="13208.6172" x2="8878.002" y2="13360.9844" gradientTransform="matrix(0.288 0 0 0.285 -2421.3958 -3673.1934)">
	<stop  offset="0" style="stop-color:#74B739"/>
	<stop  offset="1" style="stop-color:#56991C"/>
</linearGradient>
<path fill="url(#SVGID_2_)" d="M12.087,8.1v1.948c0,0.056-0.312,0.101-0.692,0.101H8.693C8.311,10.15,8.001,10.461,8,10.844v2.379
	c0,0.382,0.312,0.693,0.693,0.693h2.7c0.382,0,0.692,0.039,0.692,0.088v1.985c0,0.056,0.227-0.115,0.5-0.38l3.207-3.095
	c0.266-0.255,0.275-0.677,0.021-0.942c-0.008-0.008-0.015-0.014-0.021-0.021l-3.207-3.094C12.312,8.192,12.087,8.031,12.087,8.1z"/>
</svg>
