<?xml version="1.0" encoding="utf-8"?>
<!-- Generator: Adobe Illustrator 16.0.4, SVG Export Plug-In . SVG Version: 6.00 Build 0)  -->
<!DOCTYPE svg PUBLIC "-//W3C//DTD SVG 1.1//EN" "http://www.w3.org/Graphics/SVG/1.1/DTD/svg11.dtd">
<svg version="1.1" id="Capa_1" xmlns="http://www.w3.org/2000/svg" xmlns:xlink="http://www.w3.org/1999/xlink" x="0px" y="0px"
	 width="16px" height="16px" viewBox="298 388 16 16" enable-background="new 298 388 16 16" xml:space="preserve">
<g id="XMLID_821_">
	<polygon id="XMLID_822_" fill="#DEDDE0" points="301.138,402.01 301.138,400.847 306,400.847 306,399.684 301.138,399.684 
		301.138,398.521 306,398.521 306,397.357 301.138,397.357 301.138,396.194 306,396.194 306,395.03 301.138,395.03 301.138,393.867 
		306,393.867 306,391.929 299.812,391.929 299.812,403.949 306,403.949 306,402.01 	"/>
	<path id="XMLID_823_" fill="#CDCDD0" d="M306,393.867h2.21v1.163H306v1.164h2.21v1.164H306v1.163h2.21v1.163H306v1.163h2.21v1.163
		H306v1.939h6.188v-12.021H306V393.867z M309.536,393.867h1.326v1.163h-1.326V393.867z M309.536,396.194h1.326v1.164h-1.326V396.194
		z M309.536,398.521h1.326v1.163h-1.326V398.521z M309.536,400.847h1.326v1.163h-1.326V400.847z"/>
	<polygon id="XMLID_829_" fill="#ACABB1" points="309.536,390.377 309.536,391.153 302.464,391.153 302.464,390.377 
		299.812,390.377 299.812,391.929 306,391.929 312.188,391.929 312.188,390.377 	"/>
	<path id="XMLID_830_" fill="#565659" d="M309.536,391.153v-0.776v-0.775h-1.769c0-0.857-0.79-1.551-1.768-1.551
		c-0.976,0-1.768,0.694-1.768,1.551h-1.769v0.775v0.776H309.536z"/>
	<polygon id="XMLID_831_" fill="#FFFFFF" points="301.138,402.01 306,402.01 308.21,402.01 308.21,400.847 306,400.847 
		301.138,400.847 	"/>
	<polygon id="XMLID_832_" fill="#FFFFFF" points="301.138,397.357 306,397.357 308.21,397.357 308.21,396.194 306,396.194 
		301.138,396.194 	"/>
	<polygon id="XMLID_833_" fill="#FFFFFF" points="301.138,395.03 306,395.03 308.21,395.03 308.21,393.867 306,393.867 
		301.138,393.867 	"/>
	<polygon id="XMLID_834_" fill="#FFFFFF" points="301.138,399.684 306,399.684 308.21,399.684 308.21,398.521 306,398.521 
		301.138,398.521 	"/>
	<rect id="XMLID_835_" x="309.536" y="400.847" fill="#FFFFFF" width="1.326" height="1.163"/>
	<rect id="XMLID_836_" x="309.536" y="396.194" fill="#D80027" width="1.326" height="1.164"/>
	<rect id="XMLID_837_" x="309.536" y="393.867" fill="#64C37D" width="1.326" height="1.163"/>
	<rect id="XMLID_838_" x="309.536" y="398.521" fill="#FFFFFF" width="1.326" height="1.163"/>
</g>
</svg>
